<svg xmlns="http://www.w3.org/2000/svg" width="200" height="100" viewBox="0 0 200 100" fill="none"><mask id="mask0_112_1151" style="mask-type:alpha" maskUnits="userSpaceOnUse" x="0" y="0" width="200" height="100"><rect width="200" height="100" fill="#D9D9D9"></rect></mask><g mask="url(#mask0_112_1151)"><path d="M166.886 61.0754C170.719 61.0754 173 58.7966 173 55.6062C173 49.4078 165.335 49.2255 165.335 46.2175C165.335 45.306 165.974 44.7591 166.977 44.7591C168.072 44.7591 168.711 45.3971 168.711 46.6733H172.726C172.726 43.1183 170.536 40.9306 166.977 40.9306C163.419 40.9306 161.32 43.1183 161.32 46.0352C161.32 51.9601 168.894 52.3247 168.894 55.5151C168.894 56.5178 168.255 57.247 166.977 57.247C165.7 57.247 164.97 56.6089 164.97 55.0593H160.955C160.864 58.9789 163.236 61.0754 166.886 61.0754ZM155.024 56.9735V41.2952H151.1V60.6196H160.773V56.8824H155.024V56.9735ZM143.891 41.2952V60.6196H147.815V41.2952H143.891ZM134.31 53.7832L134.766 51.5955C135.04 50.2282 135.314 47.8583 135.587 46.3087H135.679C135.861 47.8583 136.226 50.2282 136.409 51.5955L136.865 53.7832H134.31ZM138.234 60.7108H142.34L137.686 41.3864H133.489L128.835 60.7108H132.941L133.58 57.5205H137.686L138.234 60.7108ZM117.976 41.2952V45.0325H121.809V60.6196H125.824V45.0325H129.656V41.2952H117.976ZM113.231 60.7108H117.702L111.954 49.7725L116.881 41.2952H112.41L109.673 46.5821L108.669 48.7698V41.2952H104.836V60.6196H108.669V55.0593L109.764 53.3274L113.231 60.7108ZM96.4412 60.9843C100.365 60.9843 102.646 58.7966 102.738 54.6947H98.8137C98.7225 56.4266 97.9925 57.1558 96.5325 57.1558C95.3462 57.1558 94.6162 56.4266 94.6162 54.6947V47.129C94.6162 45.3971 95.3462 44.6679 96.5325 44.6679C97.9925 44.6679 98.7225 45.3971 98.8137 47.129H102.738C102.555 43.0272 100.456 40.8395 96.5325 40.8395C92.7 40.8395 90.51 43.0272 90.51 47.129V54.6947C90.4187 58.7966 92.7 60.9843 96.4412 60.9843ZM82.0238 57.247C80.5637 57.247 79.8337 56.2443 79.8337 54.4213V47.5848C79.8337 45.7617 80.5637 44.7591 82.0238 44.7591C83.4837 44.7591 84.2137 45.7617 84.2137 47.5848V54.4213C84.2137 56.2443 83.4837 57.247 82.0238 57.247ZM82.0238 60.9843C85.9475 60.9843 88.32 58.5231 88.32 54.3301V47.5848C88.32 43.3918 85.9475 40.9306 82.0238 40.9306C78.1 40.9306 75.7275 43.3918 75.7275 47.5848V54.4213C75.7275 58.5231 78.1 60.9843 82.0238 60.9843ZM67.9713 60.9843C71.895 60.9843 74.1762 58.7966 74.2675 54.6947H70.3438C70.2525 56.4266 69.5225 57.1558 68.0625 57.1558C66.8763 57.1558 66.1463 56.4266 66.1463 54.6947V47.129C66.1463 45.3971 66.8763 44.6679 68.0625 44.6679C69.5225 44.6679 70.2525 45.3971 70.3438 47.129H74.2675C74.085 43.0272 71.9862 40.8395 68.0625 40.8395C64.23 40.8395 62.04 43.0272 62.04 47.129V54.6947C61.9488 58.7966 64.1388 60.9843 67.9713 60.9843Z" fill="#1A1A1A"></path><path fill-rule="evenodd" clip-rule="evenodd" d="M42.8775 63.9923C42.8775 63.9923 43.1513 65.9977 43.1513 66.5446C43.1513 67.0003 43.79 67.1826 43.8813 66.5446C43.8813 65.9977 44.2463 63.9923 44.2463 63.9923L54.8313 47.3113L43.5163 62.625L27.5475 40.0191C27.5475 40.0191 33.6612 50.8663 42.8775 63.9923Z" fill="#1A1A1A"></path><path d="M43.2425 37.6491C37.4025 37.2845 27 37.7403 27 39.2899C27 39.5633 27.5475 39.8368 28.5512 40.1103C34.5737 41.6599 52.6412 41.6599 58.2987 40.2014C59.85 39.7457 60.3975 39.2899 58.2987 38.6518C57.7512 38.4695 56.93 38.4695 56.0175 38.3784C58.025 38.8341 59.2112 39.1076 59.0287 39.381C59.0287 39.5633 57.3862 39.928 54.6487 40.1103C47.44 40.6572 39.3187 40.6572 32.11 40.1103C32.0187 40.1103 26.8175 39.7457 28.095 39.1076C29.7375 38.1961 38.315 37.7403 43.2425 37.6491Z" fill="#1A1A1A"></path><path fill-rule="evenodd" clip-rule="evenodd" d="M38.8625 42.8448C33.7525 40.9306 30.9237 42.3891 30.4675 42.6625L36.2163 50.684L43.5163 60.8931L57.2038 41.751C55.2875 44.3944 52.0025 45.2148 48.4438 45.0325L46.71 47.7671C46.9838 47.9494 47.3488 48.2229 47.5313 48.5875C48.535 50.0459 48.2613 52.0513 46.8013 53.054C45.3413 54.0566 43.3337 53.7832 42.33 52.3247C41.3262 50.8663 41.6 48.8609 43.06 47.8582C43.9725 47.129 45.1588 47.0379 46.1625 47.4936L47.6225 44.9414C44.6113 44.7591 41.4175 43.8475 38.8625 42.8448Z" fill="#FF6600"></path><path d="M43.3337 53.3274L43.2425 53.5097C43.1513 53.6009 42.6038 54.7859 42.4213 54.6947C42.33 54.6036 42.8775 53.3274 42.8775 53.2363V53.1451C43.1513 53.2363 43.2425 53.3274 43.3337 53.3274ZM54.01 33.365L45.98 48.314C45.8887 48.4963 45.4325 48.314 45.5238 48.1317L53.4625 33.0915C53.645 32.818 54.1013 33.1826 54.01 33.365Z" fill="#1A1A1A"></path><path fill-rule="evenodd" clip-rule="evenodd" d="M45.25 53.1451C44.2462 53.3274 43.2425 52.9628 42.6037 52.0513C41.6912 50.8663 41.965 49.1344 43.2425 48.314C43.5162 48.1317 43.79 48.0406 44.0637 47.9494C43.8812 48.0406 43.79 48.1317 43.6075 48.2229C42.33 49.1344 42.0562 50.8663 42.9687 52.0513C43.425 52.7805 44.3375 53.1451 45.25 53.1451Z" fill="#1A1A1A"></path></g></svg>