<svg xmlns="http://www.w3.org/2000/svg" width="200" height="100" viewBox="0 0 200 100" fill="none"><mask id="mask0_112_1154" style="mask-type:alpha" maskUnits="userSpaceOnUse" x="0" y="0" width="200" height="100"><rect width="200" height="100" fill="#D9D9D9"></rect></mask><g mask="url(#mask0_112_1154)"><path d="M63.1 68.3H52.7V42.3H63.1V44C63.1 46.8 62.5 49.7 61.1 52C60.5 53 59.8 53.8 58.9 54.5C59.8 55.4 60.6 56.5 61.1 57.7C62.4 60.3 63 63.6 63 66.4V68.3H63.1ZM56.2 52.3C57 51.9 57.6 51.2 58.2 50.3C58.9 49.1 59.4 47.5 59.6 45.8H56.2V52.3ZM56.2 56.8V64.8H59.6C59.4 62.9 58.9 60.9 58.1 59.3C57.5 58.1 56.9 57.3 56.2 56.8Z" fill="#49483F"></path><path d="M67.8 44.4C68.6 43.2 70 42.4 72 42.4C73.9 42.4 75.3 43.2 76.2 44.4C77 45.5 77.2 46.7 77.2 47.6V63.1C77.2 64 77 65.2 76.2 66.3C75.4 67.5 74 68.3 72 68.3C70.1 68.3 68.7 67.5 67.8 66.3C67 65.2 66.8 64 66.8 63.1V47.5C66.8 46.7 67 45.4 67.8 44.4ZM70.6 46.4C70.3 46.8 70.2 47.3 70.2 47.6V63.1C70.2 63.4 70.3 63.9 70.6 64.3C70.8 64.6 71.1 64.9 72 64.9C72.8 64.9 73.2 64.6 73.4 64.3C73.7 63.9 73.8 63.5 73.8 63.1V47.5C73.8 47.2 73.7 46.7 73.4 46.3C73.2 46 72.9 45.7 72 45.7C71.2 45.8 70.8 46.1 70.6 46.4Z" fill="#49483F"></path><path d="M84.3 42.3V63C84.3 63.3 84.4 63.8 84.7 64.2C84.9 64.5 85.2 64.8 86.1 64.8C86.9 64.8 87.3 64.5 87.5 64.2C87.8 63.8 87.9 63.4 87.9 63V42.3H91.4V63C91.4 63.9 91.2 65.1 90.4 66.2C89.6 67.4 88.2 68.2 86.2 68.2C84.3 68.2 82.9 67.4 82 66.2C81.2 65.1 81 63.9 81 63V42.3H84.3Z" fill="#49483F"></path><path d="M105.3 63.1V68.3H101.8V63.1C101.8 61.6 101.4 59.8 100.6 58.4C100.1 57.5 99.4 56.9 98.4 56.5V68.3H94.9V42.3H105.3V44C105.3 46.7 104.9 49.7 103.6 52C103.1 52.9 102.5 53.7 101.7 54.4C102.5 55 103.1 55.7 103.6 56.5C104.8 58.6 105.3 61.1 105.3 63.1ZM101.8 45.8H98.4V52.4C99.3 52 100 51.3 100.6 50.4C101.2 49.2 101.6 47.6 101.8 45.8Z" fill="#49483F"></path><path d="M119.4 68.3H109V42.3H119.4V44C119.4 46.8 118.8 49.7 117.4 52C116.8 53 116.1 53.8 115.2 54.5C116.1 55.4 116.9 56.5 117.4 57.7C118.7 60.3 119.3 63.6 119.3 66.4V68.3H119.4ZM112.4 52.3C113.2 51.9 113.8 51.2 114.4 50.3C115.1 49.1 115.6 47.5 115.8 45.8H112.4V52.3ZM112.4 56.8V64.8H115.8C115.6 62.9 115.1 60.9 114.3 59.3C113.8 58.1 113.1 57.3 112.4 56.8Z" fill="#49483F"></path><path d="M124.1 44.4C124.9 43.2 126.3 42.4 128.3 42.4C130.2 42.4 131.6 43.2 132.5 44.4C133.3 45.5 133.5 46.7 133.5 47.6V63.1C133.5 64 133.3 65.2 132.5 66.3C131.7 67.5 130.3 68.3 128.3 68.3C126.4 68.3 125 67.5 124.1 66.3C123.3 65.2 123.1 64 123.1 63.1V47.5C123.1 46.7 123.3 45.4 124.1 44.4ZM126.9 46.4C126.6 46.8 126.5 47.3 126.5 47.6V63.1C126.5 63.4 126.6 63.9 126.9 64.3C127.1 64.6 127.4 64.9 128.3 64.9C129.1 64.9 129.5 64.6 129.7 64.3C130 63.9 130.1 63.5 130.1 63.1V47.5C130.1 47.2 130 46.7 129.7 46.3C129.5 46 129.2 45.7 128.3 45.7C127.4 45.8 127.1 46.1 126.9 46.4Z" fill="#49483F"></path><path d="M147.5 68.3H144V56.9L140.5 53.4V68.2H137V42.3H140.5V48.5L144 52V42.4H147.5V68.3Z" fill="#49483F"></path><path d="M57 28.1V33H56.3V30.8H53.5V33H52.8V28.1H53.5V30.2H56.3V28.1H57Z" fill="#49483F"></path><path d="M61.6 31.7H59L58.5 33H57.7L60 28.1H60.7L62.9 33H62.2L61.6 31.7ZM61.4 31.2L60.3 28.8L59.3 31.2H61.4Z" fill="#49483F"></path><path d="M67.9 28.1V33H67.3L64.3 29.3V33H63.6V28.1H64.2L67.2 31.8V28.1H67.9Z" fill="#49483F"></path><path d="M69.3 28.1H71.4C71.9 28.1 72.4 28.2 72.8 28.4C73.2 28.6 73.5 28.9 73.7 29.3C74 29.6 74.1 30 74.1 30.5C74.1 31 74 31.4 73.8 31.8C73.6 32.2 73.3 32.5 72.9 32.7C72.4 32.9 71.9 33 71.4 33H69.3V28.1ZM71.4 32.4C71.8 32.4 72.1 32.3 72.5 32.2C72.7 32 73 31.8 73.1 31.5C73.3 31.2 73.3 30.9 73.3 30.5C73.3 30.1 73.2 29.8 73.1 29.5C72.9 29.2 72.7 29 72.4 28.8C72.1 28.6 71.7 28.6 71.3 28.6H70V32.3H71.4V32.4Z" fill="#49483F"></path><path d="M76 32.7C75.6 32.5 75.3 32.2 75.1 31.8C74.9 31.4 74.8 31 74.8 30.5C74.8 30 74.9 29.6 75.1 29.2C75.3 28.8 75.6 28.5 76 28.3C76.4 28.1 76.9 28 77.4 28C77.8 28 78.1 28.1 78.5 28.2C78.8 28.3 79.1 28.5 79.3 28.8L78.8 29.2C78.4 28.8 78 28.6 77.4 28.6C77 28.6 76.7 28.7 76.4 28.8C76.1 29 75.9 29.2 75.7 29.5C75.5 29.8 75.5 30.1 75.5 30.5C75.5 30.9 75.6 31.2 75.7 31.5C75.9 31.8 76.1 32 76.4 32.2C76.7 32.4 77 32.4 77.4 32.4C77.9 32.4 78.4 32.2 78.8 31.8L79.3 32.2C79.1 32.5 78.8 32.6 78.5 32.8C78.1 33 77.7 33 77.3 33C76.9 33 76.4 32.9 76 32.7Z" fill="#49483F"></path><path d="M83.5 33L82.4 31.5C82.3 31.5 82.2 31.5 82.1 31.5H80.9V33H80.2V28.1H82.1C82.7 28.1 83.2 28.3 83.6 28.6C84 28.9 84.1 29.3 84.1 29.9C84.1 30.3 84 30.6 83.8 30.9C83.6 31.2 83.3 31.4 83 31.5L84.3 33H83.5ZM83.1 30.6C83.3 30.4 83.5 30.1 83.5 29.8C83.5 29.4 83.4 29.2 83.1 29C82.9 28.8 82.5 28.7 82.1 28.7H80.9V30.9H82.1C82.6 30.9 82.9 30.8 83.1 30.6Z" fill="#49483F"></path><path d="M88.5 31.7H85.9L85.3 33H84.6L86.8 28.1H87.5L89.8 33H89L88.5 31.7ZM88.2 31.2L87.1 28.8L86 31.2H88.2Z" fill="#49483F"></path><path d="M91.2 28.7V30.4H93.7V31H91.2V33H90.5V28.1H94V28.7H91.2Z" fill="#49483F"></path><path d="M96 28.7H94.3V28.1H98.4V28.7H96.7V33H96V28.7Z" fill="#49483F"></path><path d="M102.7 32.4V33H99.1V28.1H102.6V28.7H99.8V30.2H102.3V30.8H99.8V32.4H102.7Z" fill="#49483F"></path><path d="M103.8 28.1H105.9C106.4 28.1 106.9 28.2 107.3 28.4C107.7 28.6 108 28.9 108.2 29.3C108.4 29.7 108.5 30.1 108.5 30.6C108.5 31.1 108.4 31.5 108.2 31.9C108 32.3 107.7 32.6 107.3 32.8C106.9 32.9 106.4 33 105.9 33H103.8V28.1ZM105.8 32.4C106.2 32.4 106.5 32.3 106.9 32.2C107.2 32 107.4 31.8 107.6 31.6C107.8 31.3 107.8 31 107.8 30.6C107.8 30.2 107.7 29.9 107.6 29.6C107.4 29.3 107.2 29.1 106.9 28.9C106.6 28.7 106.2 28.7 105.8 28.7H104.5V32.4H105.8Z" fill="#49483F"></path><path d="M114.9 28.5C115.3 28.8 115.4 29.2 115.4 29.8C115.4 30.3 115.2 30.8 114.9 31.1C114.5 31.4 114 31.6 113.4 31.6H112.2V33H111.5V28.1H113.4C114.1 28.1 114.6 28.2 114.9 28.5ZM114.4 30.6C114.6 30.4 114.8 30.1 114.8 29.8C114.8 29.4 114.7 29.2 114.4 29C114.2 28.8 113.8 28.7 113.4 28.7H112.2V30.9H113.4C113.9 30.9 114.2 30.8 114.4 30.6Z" fill="#49483F"></path><path d="M119.8 33L118.7 31.5C118.6 31.5 118.5 31.5 118.4 31.5H117.2V33H116.5V28.1H118.4C119 28.1 119.5 28.3 119.9 28.6C120.3 28.9 120.4 29.3 120.4 29.9C120.4 30.3 120.3 30.6 120.1 30.9C120 31 119.8 31.2 119.4 31.3L120.6 33H119.8ZM119.4 30.6C119.6 30.4 119.8 30.1 119.8 29.8C119.8 29.4 119.7 29.2 119.4 29C119.2 28.8 118.8 28.7 118.4 28.7H117.2V30.9H118.4C118.9 30.9 119.2 30.8 119.4 30.6Z" fill="#49483F"></path><path d="M122.5 32.7C122.1 32.5 121.8 32.2 121.6 31.8C121.4 31.4 121.3 31 121.3 30.5C121.3 30 121.4 29.6 121.6 29.2C121.8 28.8 122.1 28.5 122.5 28.3C122.9 28.1 123.3 28 123.8 28C124.3 28 124.7 28.1 125.1 28.3C125.5 28.5 125.8 28.8 126 29.2C126.2 29.6 126.3 30 126.3 30.5C126.3 31 126.2 31.4 126 31.8C125.8 32.2 125.5 32.5 125.1 32.7C124.8 32.9 124.3 33 123.8 33C123.3 33 122.9 32.9 122.5 32.7ZM124.8 32.2C125.1 32 125.3 31.8 125.5 31.5C125.7 31.2 125.7 30.9 125.7 30.5C125.7 30.1 125.6 29.8 125.5 29.5C125.3 29.2 125.1 29 124.8 28.8C124.5 28.6 124.2 28.6 123.8 28.6C123.4 28.6 123.1 28.7 122.8 28.8C122.5 29 122.3 29.2 122.1 29.5C121.9 29.8 121.9 30.1 121.9 30.5C121.9 30.9 122 31.2 122.1 31.5C122.3 31.8 122.5 32 122.8 32.2C123.1 32.4 123.4 32.4 123.8 32.4C124.2 32.4 124.5 32.3 124.8 32.2Z" fill="#49483F"></path><path d="M127.5 28.1H129.6C130.1 28.1 130.6 28.2 131 28.4C131.4 28.6 131.7 28.9 131.9 29.3C132.1 29.7 132.2 30.1 132.2 30.6C132.2 31.1 132.1 31.5 131.9 31.9C131.7 32.3 131.4 32.6 131 32.8C130.6 32.9 130.1 33 129.6 33H127.5V28.1ZM129.6 32.4C130 32.4 130.3 32.3 130.7 32.2C131 32 131.2 31.8 131.4 31.6C131.6 31.3 131.6 31 131.6 30.6C131.6 30.2 131.5 29.9 131.4 29.6C131.2 29.3 131 29.1 130.7 28.9C130.4 28.7 130 28.7 129.6 28.7H128.3V32.4H129.6Z" fill="#49483F"></path><path d="M133.8 32.5C133.4 32.1 133.3 31.6 133.3 30.9V28.1H134V30.9C134 32 134.5 32.5 135.4 32.5C135.8 32.5 136.2 32.4 136.4 32.1C136.6 31.8 136.8 31.4 136.8 30.9V28.1H137.5V30.9C137.5 31.6 137.3 32.1 137 32.5C136.5 32.8 136 33 135.4 33C134.7 33 134.2 32.8 133.8 32.5Z" fill="#49483F"></path><path d="M139.8 32.7C139.4 32.5 139.1 32.2 138.9 31.8C138.7 31.4 138.6 31 138.6 30.5C138.6 30 138.7 29.6 138.9 29.2C139.1 28.8 139.4 28.5 139.8 28.3C140.2 28.1 140.6 28 141.1 28C141.5 28 141.8 28.1 142.2 28.2C142.5 28.3 142.8 28.5 143 28.8L142.5 29.2C142.1 28.8 141.7 28.6 141.1 28.6C140.7 28.6 140.4 28.7 140.1 28.8C139.8 29 139.6 29.2 139.4 29.5C139.2 29.8 139.2 30.1 139.2 30.5C139.2 30.9 139.3 31.2 139.4 31.5C139.6 31.8 139.8 32 140.1 32.2C140.4 32.4 140.7 32.4 141.1 32.4C141.6 32.4 142.1 32.2 142.5 31.8L143 32.3C142.8 32.6 142.5 32.7 142.2 32.9C141.8 33 141.5 33 141.1 33C140.6 33 140.2 32.9 139.8 32.7Z" fill="#49483F"></path><path d="M144.9 28.7H143.2V28.1H147.3V28.7H145.6V33H144.9V28.7Z" fill="#49483F"></path><path d="M149.3 39.1H50.4C50.2 39.1 50 38.9 50 38.7C50 38.5 50.2 38.3 50.4 38.3H149.3C149.5 38.3 149.7 38.5 149.7 38.7C149.7 38.9 149.5 39.1 149.3 39.1Z" fill="#49483F"></path><path d="M149.6 72H50.7C50.5 72 50.3 71.8 50.3 71.6C50.3 71.4 50.5 71.2 50.7 71.2H149.6C149.8 71.2 150 71.4 150 71.6C150 71.8 149.8 72 149.6 72Z" fill="#49483F"></path></g></svg>