<svg xmlns="http://www.w3.org/2000/svg" width="135" height="54" viewBox="0 0 135 54" fill="none"><path d="M21.7353 35.8659C20.1765 38.4606 18.6176 40.4431 17.0588 41.7843C15.5 43.1254 14.0588 43.7959 12.6765 43.7959C11.4706 43.7959 10.5882 43.3586 10.0588 42.4548C9.52941 41.5802 9.26471 40.1224 9.26471 38.0525V21.3761C9.26471 20.1224 9.38235 19.277 9.58823 18.898C9.79412 18.4898 10.1471 18.1691 10.6471 17.9359V17.3528C9.29412 17.4111 8.32353 17.4694 7.67647 17.4694C7.02941 17.4694 6.41176 17.4985 5.82353 17.4985C5.26471 17.4985 4.64706 17.4694 4 17.4694C3.35294 17.4402 2.35294 17.4111 1 17.3528V17.9359C1.52941 18.1983 1.88235 18.5189 2.08824 18.898C2.29412 19.3061 2.38235 20.1516 2.38235 21.3761V36.6822C2.38235 39.3353 2.20588 41.2595 1.85294 42.4548C1.5 43.6501 0.882353 44.5248 0 45.0787V45.6618C2.11765 45.6035 4.02941 45.5452 5.76471 45.5452C7.47059 45.516 8.70588 45.516 9.5 45.516H20.3529L22.3235 36.0408L21.7353 35.8659Z" fill="#C6102E"></path><path d="M27.2059 20.8222C28.0882 20.8222 28.8235 20.4723 29.4412 19.8017C30.0588 19.1312 30.3529 18.3149 30.3529 17.3528C30.3529 16.3907 30.0588 15.6035 29.4412 14.9621C28.8235 14.3207 28.0588 14 27.2059 14C26.3529 14 25.5882 14.3207 25.0294 14.9621C24.4412 15.6035 24.1471 16.4198 24.1471 17.3528C24.1471 18.344 24.4412 19.1603 25.0294 19.8309C25.5882 20.5015 26.3235 20.8222 27.2059 20.8222Z" fill="#C6102E"></path><path d="M30.7941 43.242C30.5 42.2216 30.3529 40.0641 30.3529 36.7114V22.4257C28.9412 22.7464 27.5294 23.0087 26.1765 23.2711C24.8235 23.5335 23.5 23.7668 22.2059 23.9417V24.4665C22.9412 24.5248 23.4706 24.8163 23.7647 25.3411C24.0294 25.8367 24.1765 27.0029 24.1765 28.8105V36.6239C24.1765 39.9475 24 42.105 23.6765 43.0962C23.3529 44.1166 22.7647 44.7872 21.9412 45.137L21.9706 45.6035C22.9118 45.5743 23.8235 45.516 24.7059 45.4869C25.5882 45.4577 26.4706 45.4577 27.2941 45.4577C28.1765 45.4577 29.0294 45.4577 29.8824 45.4869C30.7353 45.516 31.5588 45.5452 32.3824 45.6035L32.4118 45.137C31.6176 44.9038 31.0882 44.2624 30.7941 43.242Z" fill="#C6102E"></path><path d="M54.3824 51.551C54.0588 50.5306 53.8824 48.3732 53.8824 45.0787V31.7259C53.8824 28.4023 54.0588 26.2741 54.3824 25.2536C54.7059 24.2624 55.2941 23.5918 56.1176 23.242V22.7464C55.1176 22.8047 54.2353 22.863 53.4412 22.8921C52.6471 22.9213 51.9118 22.9504 51.2353 22.9504C50.6176 22.9504 50.2059 22.9504 49.9118 22.9213C49.6471 22.9213 49.3824 22.9213 49.1471 22.8921C48.8824 23.3878 48.6471 23.9125 48.4706 24.4665C48.2647 24.9913 48.0588 25.5743 47.9118 26.1283C47.1765 24.9038 46.3235 23.9708 45.3235 23.3294C44.3235 22.7172 43.2059 22.3965 41.9706 22.3965C39.3235 22.3965 37.0882 23.4461 35.3824 25.5743C33.6471 27.7026 32.7941 30.414 32.7941 33.7376C32.7941 37.2945 33.6765 40.2099 35.3824 42.5423C37.1176 44.8746 39.2353 46.0117 41.8235 46.0117C43.0882 46.0117 44.2059 45.691 45.2059 45.0787C46.2059 44.4665 47.0588 43.5335 47.7647 42.309V45.0496C47.7647 48.4898 47.5588 50.7055 47.1471 51.6385C46.7353 52.6006 45.9706 53.242 44.8824 53.5335L44.9118 54C45.8529 53.9708 46.7941 53.9125 47.7353 53.8834C48.6765 53.8542 49.6176 53.8542 50.5588 53.8542C51.4706 53.8542 52.4118 53.8542 53.3529 53.8834C54.2941 53.9125 55.2353 53.9417 56.1765 54V53.5335C55.3235 53.242 54.7059 52.5714 54.3824 51.551ZM46.7059 41.2886C45.9706 42.9213 44.9412 43.7376 43.5882 43.7376C42.2353 43.7376 41.1765 42.8921 40.4118 41.172C39.6471 39.4519 39.2647 37.0612 39.2647 33.9708C39.2647 31.0262 39.6471 28.6939 40.4118 27.0321C41.1765 25.3703 42.2353 24.5248 43.5294 24.5248C44.9118 24.5248 45.9412 25.3411 46.6765 27.0029C47.4118 28.6356 47.7647 31.0554 47.7647 34.2041C47.7647 37.2653 47.4118 39.656 46.7059 41.2886Z" fill="#C6102E"></path><path d="M76.2647 40.9679V22.4257C74.7647 22.7464 73.2941 23.0379 71.9412 23.3003C70.5882 23.5627 69.2941 23.7668 68.0588 23.9417V24.4373C68.7941 24.5248 69.3235 24.8163 69.6176 25.312C69.8824 25.8076 70.0294 26.9738 70.0294 28.7813V35.0496C70.0294 37.7026 69.7353 39.7726 69.1471 41.2595C68.5294 42.7464 67.7059 43.5044 66.6471 43.5044C65.6765 43.5044 64.9706 42.863 64.5294 41.551C64.0882 40.2391 63.8824 38.0816 63.8824 35.0204V28.3149C63.8824 27.8192 63.9118 27.0321 63.9412 25.9825C63.9706 24.9329 64 23.7376 64.0588 22.4257L63.1765 22.6297C59.7647 23.3003 57.2941 23.7376 55.7647 23.9708V24.4665C56.5294 24.5539 57.0294 24.8455 57.3235 25.3411C57.5882 25.8367 57.7353 27.0029 57.7353 28.8105V35.516C57.7353 39.1604 58.3235 41.9009 59.4412 43.6501C60.5588 45.4286 62.3235 46.3032 64.6471 46.3032C65.9412 46.3032 67.0588 45.9534 68 45.1953C68.9412 44.4665 69.7353 43.3586 70.3824 41.8426C70.5 42.5423 70.6177 43.1837 70.7353 43.7668C70.8529 44.3499 71 44.9329 71.1765 45.4869C72.1177 45.4577 72.7941 45.4286 73.2353 45.3994C73.6765 45.3994 74.0882 45.3994 74.4706 45.3994C74.8824 45.3994 75.3235 45.3994 75.8235 45.4286C76.2941 45.4577 76.9118 45.4577 77.6471 45.4869V44.8746C77.1471 44.4373 76.8235 43.9125 76.6177 43.3878C76.3824 42.8921 76.2647 42.0466 76.2647 40.9679Z" fill="#C6102E"></path><path d="M134.912 22.863C134.206 22.8921 133.529 22.9213 132.853 22.9504C132.147 22.9796 131.471 22.9796 130.794 22.9796C130.118 22.9796 129.441 22.9504 128.765 22.9504C128.088 22.9213 127.412 22.9213 126.735 22.863V23.3294C127.529 23.5335 128.088 23.8251 128.441 24.2332C128.794 24.6414 128.941 25.1953 128.941 25.9242C128.941 26.2157 128.912 26.5656 128.824 27.0029C128.706 27.4402 128.588 27.965 128.412 28.6064L125.706 37.1778L122.265 28.6064C122.029 28.0233 121.882 27.5277 121.794 27.1195C121.676 26.7114 121.647 26.3324 121.647 25.9534C121.647 25.3411 121.794 24.8163 122.059 24.4082C122.324 24 122.794 23.6501 123.471 23.3003V22.8338C122.5 22.863 121.559 22.8921 120.618 22.9213C119.676 22.9504 118.765 22.9504 117.853 22.9504C116.971 22.9504 116.118 22.9213 115.235 22.9213C115.206 22.9213 115.206 22.9213 115.176 22.9213L115.294 22.484C115.147 22.4548 114.971 22.4548 114.824 22.4257C114.647 22.3965 114.441 22.3965 114.176 22.3965C113.118 22.3965 112.147 22.8047 111.294 23.5918C110.441 24.379 109.647 25.5452 109 27.1487V22.4257C107.647 22.7464 106.324 23.0087 104.971 23.2711C103.618 23.5335 102.235 23.7668 100.882 23.9417V24.4373C101.647 24.5248 102.147 24.8163 102.441 25.312C102.706 25.8076 102.853 26.9738 102.853 28.7813V36.5948C102.853 39.9184 102.706 42.0758 102.382 43.0671C102.059 44.0875 101.471 44.758 100.647 45.1079V45.5743C101.588 45.5452 102.5 45.4869 103.412 45.4577C104.294 45.4286 105.176 45.4286 106.059 45.4286C106.941 45.4286 107.794 45.4286 108.647 45.4577C109.471 45.4869 110.324 45.516 111.147 45.5743V45.1079C110.382 44.8455 109.853 44.2332 109.529 43.2128C109.206 42.1924 109.059 40.5015 109.059 38.1399C109.059 34.6997 109.265 32.2216 109.647 30.7347C110 29.2478 110.618 28.4898 111.471 28.4898C111.882 28.4898 112.294 28.6647 112.588 29.0146C112.912 29.3644 113.176 29.9184 113.412 30.6181L114.676 25.1662C114.912 25.6035 115.118 26.1283 115.353 26.7697L121.5 43.242C121.765 43.9125 121.912 44.4373 122 44.8163C122.059 45.1953 122.118 45.5743 122.118 45.9534C122.118 46.7114 121.912 47.3528 121.471 47.8775C121.059 48.4023 120.529 48.6647 119.912 48.6647C119.412 48.6647 119.029 48.4898 118.735 48.1399C118.441 47.7901 118.235 47.1487 118.088 46.2449L117.529 46.07L115.324 53.7085C115.529 53.7668 115.706 53.8251 115.912 53.8542C116.118 53.8834 116.294 53.9125 116.5 53.9125C118.235 53.9125 119.765 53.0962 121.088 51.5219C122.382 49.9184 123.912 46.7697 125.676 42.105L130.412 29.3353C130.912 27.965 131.559 26.7697 132.353 25.7201C133.147 24.6997 134 23.8834 135 23.2711L134.912 22.863Z" fill="#C6102E"></path><path d="M89.4118 22.4257C86.2941 22.4257 83.7353 23.5335 81.7941 25.691C79.8235 27.8776 78.8529 30.7347 78.8529 34.2624C78.8529 37.7318 79.8235 40.5889 81.8235 42.863C82.7059 43.8834 83.7059 44.6997 84.7941 45.2536L84.6765 41.1137C84.6471 39.0437 85.7353 38.2566 87.0588 36.8571C87.853 36.0117 87.7059 34.4665 87.7059 33.3586V28.344C87.5882 28.344 87.4706 28.2274 87.4706 28.1108V27.2653C87.4706 27.1487 87.5588 27.0321 87.7059 27.0321V26.8571C87.7059 26.5073 87.9706 26.2449 88.2941 26.2449H90.2941C90.7059 26.2449 91.0294 26.5948 91.0294 27.0321C91.1471 27.0321 91.2647 27.1487 91.2647 27.2653V28.1108C91.2647 28.2274 91.1765 28.344 91.0294 28.344V33.3586C91.0294 34.4665 90.8529 36.0117 91.6765 36.8571C93 38.2566 94.0882 39.0146 94.0588 41.1137L93.9412 45.2536C95.0588 44.6997 96.0294 43.9125 96.9118 42.8921C98.8824 40.6472 99.8824 37.7318 99.8824 34.1749C99.8824 30.7055 98.9118 27.8484 97 25.6618C95.0294 23.5044 92.5 22.4257 89.4118 22.4257Z" fill="#C6102E"></path><path d="M96 2C96 0.895431 96.8954 0 98 0H133C134.105 0 135 0.895431 135 2V14C135 15.1046 134.105 16 133 16H98C96.8954 16 96 15.1046 96 14V2Z" fill="#4EBA59"></path><path d="M96 18.5V14.5H100L96 18.5Z" fill="#4EBA59"></path><path d="M106.358 4.896V3.6H101.522V12H102.89V8.544H106.046V7.272H102.89V4.896H106.358ZM113.838 12H115.386L113.442 8.7C114.462 8.316 115.146 7.404 115.146 6.264C115.146 4.716 113.946 3.6 112.326 3.6H109.062V12H110.43V8.892H112.026L113.838 12ZM110.43 4.896H112.242C113.154 4.896 113.742 5.472 113.742 6.252C113.742 7.044 113.154 7.608 112.242 7.608H110.43V4.896ZM119.446 10.704V8.352H122.638V7.092H119.446V4.896H122.95V3.6H118.078V12H123.082V10.704H119.446ZM127.314 10.704V8.352H130.506V7.092H127.314V4.896H130.818V3.6H125.946V12H130.95V10.704H127.314Z" fill="white"></path></svg>