<?xml version="1.0" encoding="UTF-8"?>
<!DOCTYPE svg PUBLIC "-//W3C//DTD SVG 1.1//EN" "http://www.w3.org/Graphics/SVG/1.1/DTD/svg11.dtd">
<!-- Creator: CorelDRAW 2018 (64 Bit) -->
<svg xmlns="http://www.w3.org/2000/svg" xml:space="preserve" width="210mm" height="297mm" version="1.1" style="shape-rendering:geometricPrecision; text-rendering:geometricPrecision; image-rendering:optimizeQuality; fill-rule:evenodd; clip-rule:evenodd"
viewBox="0 0 21000 29700"
 xmlns:xlink="http://www.w3.org/1999/xlink">
 <defs>
  <style type="text/css">
   <![CDATA[
    .fil1 {fill:#FEFEFE}
    .fil0 {fill:#007072}
   ]]>
  </style>
 </defs>
 <g id="Capa_x0020_1">
  <metadata id="CorelCorpID_0Corel-Layer"/>
  <g id="_2441638844176">
   <path class="fil0" d="M2511.28 939.36l-29.83 -157.3 -172.77 0 -64.72 157.3 -182.9 0 309.53 -687.72 187.12 0 131.41 687.72 -177.84 0zm-77.1 -463.73l-69.78 173.9 94.54 0 -24.76 -173.9z"/>
   <path class="fil0" d="M2802.52 525.15l-84.42 0 15.48 -120.43 87.23 0 13.5 -112.56 174.75 -15.19 -16.32 127.75 137.6 0 -23.64 120.43 -129.44 0 -28.14 235.24c-6.19,45.31 13.23,59.66 42.21,59.66 19.17,-0.22 38.24,-3.65 56.27,-10.12l1.97 112.55c-40.78,17.98 -84.86,27.59 -129.42,28.12 -168.84,0 -156.17,-97.64 -146.04,-188.25l28.41 -237.2z"/>
   <path class="fil0" d="M3292.98 939.36l-174.74 0 65 -534.64 174.46 0 -64.72 534.64zm-82.17 -759.75l174.74 0 -20.54 170.8 -174.74 0 20.54 -170.8z"/>
   <path class="fil0" d="M3866.73 562.02c-17.45,142.94 -154.2,190.21 -254.94,190.21 -0.07,0 -0.17,0 -0.24,0 -23.71,0 -47.3,-4.2 -69.53,-12.37 3.94,54.59 69.78,75.13 140.69,75.13 1.07,0.01 2.22,0.01 3.32,0.01 42.59,0 84.94,-6.99 125.28,-20.58l5.91 123.25c-64.02,19.83 -130.71,29.88 -197.72,29.88 -2.21,0 -4.66,0 -6.86,0 -176.72,0 -233.28,-118.18 -217.8,-258.03 16.88,-144.11 109.18,-284.8 308.4,-284.8 104.96,0 175.87,50.37 163.49,157.3z"/>
   <path class="fil0" d="M3963.81 455.09c86.74,-37.1 179.98,-57.61 274.33,-60.48 106.93,0 204.57,28.14 185.15,189.09l-43.31 355.66 -171.65 0 41.09 -343.3c7.31,-58.81 -15.48,-75.13 -48.4,-75.13 -26.09,0.08 -51.96,5.37 -75.98,15.49l-49.24 402.94 -170.8 0 58.81 -484.27z"/>
   <path class="fil0" d="M4942.48 914.6c-71.81,22.62 -146.95,34.18 -222.28,34.18 -4.69,0 -9.48,-0.09 -14.09,-0.09 -130.56,0 -243.68,-52.62 -218.07,-267.32 17.44,-137.88 91.45,-283.64 278.57,-283.64 1.22,-0.06 2.54,-0.08 3.77,-0.08 21.74,0 43.38,3.46 64.04,10.18l22.79 -189.1 171.65 -0.01 -86.38 695.88zm-123.82 -386.35c-14.17,-3.54 -28.83,-5.35 -43.47,-5.35 -0.51,0 -1.05,0 -1.56,0 -61.9,0 -99.89,70.9 -111.15,159.54 -11.25,96.52 18.58,140.7 77.11,140.7 14.87,-0.25 29.73,-2.28 44.17,-5.9l34.9 -288.99z"/>
   <path class="fil0" d="M5050.81 674.01c24.76,-204.57 122.4,-277.45 277.45,-277.45 161.52,0 234.39,70.91 208.79,276.32 -25.61,205.42 -120.44,277.73 -281.39,277.73 -155.61,0 -229.61,-72.03 -204.85,-276.6zm165.46 0c-14.35,116.21 15.47,147.16 58.52,147.16 43.06,0 81.32,-30.95 95.68,-147.16 15.47,-124.37 -14.35,-146.89 -56.28,-146.89 -41.93,0 -82.45,22.52 -97.92,146.89z"/>
   <path class="fil1" d="M3532.98 644.21c7.93,4.29 16.37,7.02 25.01,8.02 0.9,0.1 1.82,0.31 2.72,0.26 329.52,-18.36 115.6,-291.65 -27.73,-8.28z"/>
  </g>
 </g>
</svg>
